<svg xmlns="http://www.w3.org/2000/svg" width="167" height="28" fill="none"><path fill="#043959" fill-rule="evenodd" d="M19.9 24.1l3.74-10.76c.7-1.74.93-3.14.93-4.37 0-.45-.03-.87-.1-1.26.97 1.75 1.5 3.74 1.5 5.86 0 4.5-2.43 8.43-6.06 10.55zM15.46 7.86c.73-.04 1.4-.12 1.4-.12.65-.08.58-1.04-.08-1 0 0-1.98.15-3.26.15-1.2 0-3.2-.15-3.2-.15-.67-.04-.74.96-.08 1 0 0 .62.08 1.28.12l1.9 5.2-2.67 8-4.45-13.2c.73-.04 1.4-.12 1.4-.12.65-.08.58-1.04-.08-1 0 0-1.98.15-3.26.15-.23 0-.5 0-.8 0 2.2-3.32 5.95-5.5 10.22-5.5 3.18 0 6.08 1.2 8.25 3.2-.04 0-.1-.02-.14-.02-1.2 0-2.06 1.04-2.06 2.17 0 1 .58 1.85 1.2 2.86.47.8 1 1.84 1 3.35 0 1.04-.3 2.36-.92 3.94l-1.22 4.06-4.4-13.1zm-1.7 17.9c-1.2 0-2.34-.16-3.44-.48L14 14.63l3.75 10.27c.03.06.06.12.1.17-1.28.45-2.64.7-4.07.7zm-12.2-12.2c0-1.75.38-3.43 1.05-4.95l5.83 15.94c-4.07-1.98-6.88-6.15-6.88-10.98zM13.75 0C6.28 0 .18 6.08.18 13.56s6.1 13.57 13.6 13.57 13.58-6.1 13.58-13.57C27.35 6.08 21.25 0 13.75 0zM48.3 7.75l-2.7 10.4-2.72-10.4h-2.73l.64 2.23-2.4 8.52-2.6-10.75H33.2l3.7 13.57h2.86l2.2-7.25 2.1 7.25h2.86l3.88-13.57H48.3zm78.8 13.57h2.4v-2.47h-2.4v2.47zm-71.76-9.86c-3.3 0-4.87 2.13-4.87 5.06 0 2.94 1.56 5.05 4.87 5.05 3.3 0 4.87-2.1 4.87-5.05 0-2.93-1.57-5.06-4.86-5.06zm0 8.18c-1.56 0-2.4-1-2.4-3.12 0-2.08.84-3.12 2.4-3.12 1.57 0 2.38 1.02 2.38 3.12s-.8 3.12-2.38 3.12zm20.55-7.96c-.73-.14-1.23-.22-1.82-.22-3.3 0-5.12 2.2-5.12 5.43 0 3.2 1.8 4.67 3.94 4.67 1.06 0 2.34-.5 3.1-1.14v.9h2.28V7.74h-2.4v3.93zm0 6.87c-.8.7-1.52 1.1-2.3 1.1-1.3 0-2.16-.88-2.16-2.92 0-2.2 1.06-3.37 2.88-3.37.57 0 1.16.14 1.57.3v4.9zm9.78-10.8h-4.44v13.57h2.56V16.6h1.88c2.9 0 5-1.56 5-4.47 0-2.94-2.1-4.38-5-4.38zm.02 6.87h-1.9V9.76h1.9c1.54 0 2.3.85 2.3 2.37 0 1.5-.7 2.5-2.3 2.5zm18-3.16c-3.1 0-4.7 2.4-4.7 5 0 3.6 1.9 5.1 4.96 5.1 1.23 0 2.3-.16 3.55-.54v-2c-1 .38-1.9.6-2.87.6-1.8 0-2.98-.48-3.04-2.6h6.16c.04-.38.08-.74.08-1.4 0-2.03-1.08-4.16-4.14-4.16zm-2.1 4c.15-1.35.88-2.2 2.08-2.2 1.27 0 1.66 1.02 1.66 2.2h-3.73zM112 14.4c0-.73.8-1.02 1.64-1.02 1.38 0 2.68.43 2.68.43v-1.98c-.9-.26-1.8-.36-2.86-.36-2.3 0-3.94 1.1-3.94 2.88 0 3.46 4.8 2.57 4.8 4.25 0 .82-.76 1.04-1.85 1.04-.78 0-2-.3-2.9-.6V21c.74.3 1.78.57 2.8.57 2.27 0 4.42-.67 4.42-3.08 0-3.35-4.8-2.48-4.8-4.1zm33.23-2.94c-3.3 0-4.87 2.13-4.87 5.06 0 2.94 1.56 5.05 4.87 5.05 3.3 0 4.87-2.1 4.87-5.05 0-2.93-1.58-5.06-4.87-5.06zm0 8.18c-1.56 0-2.4-1-2.4-3.12 0-2.08.84-3.12 2.4-3.12s2.38 1.02 2.38 3.12-.8 3.12-2.37 3.12zm18.57-8.18c-1.03 0-2.2.57-3.28 1.27l-.3.2c-.5-1.1-1.5-1.47-2.63-1.47-1.04 0-2.22.53-3.3 1.23v-1h-2.27v9.62h2.42v-6.9c.9-.6 1.84-.96 2.54-.96.78 0 1.26.43 1.26 1.8v6.06h2.4v-6.88c.9-.6 1.85-.98 2.54-.98.8 0 1.27.43 1.27 1.8v6.06h2.4v-6.64c0-1.86-1.12-3.22-3.07-3.22zm-69.3 1.82h-.08V11.7H92.2v9.62h2.38V15.6c.75-1.43 1.67-1.9 3.2-1.9H98v-2.08s-.33-.04-.64-.04c-1.3 0-2.2.5-2.86 1.7zm-30.04 0h-.08V11.7h-2.24v9.62h2.4V15.6c.75-1.43 1.66-1.9 3.18-1.9h.25v-2.08s-.35-.04-.65-.04c-1.3 0-2.2.5-2.86 1.7zm68.88 3.14c0-2.25 1.24-3.02 2.7-3.02.98 0 2 .3 2.7.55v-2.03c-.82-.26-1.54-.46-2.74-.46-3.18 0-5.15 1.94-5.15 5.08 0 2.98 1.42 5.03 5 5.03 1.15 0 2.03-.22 3-.55v-1.98c-1.1.42-1.93.58-2.7.58-1.57 0-2.8-.73-2.8-3.2zm-12.62-2.02c0-.73.8-1.02 1.64-1.02 1.37 0 2.68.43 2.68.43v-1.98c-.9-.26-1.8-.36-2.86-.36-2.32 0-3.94 1.1-3.94 2.88 0 3.46 4.8 2.57 4.8 4.25 0 .82-.76 1.04-1.86 1.04-.77 0-2-.3-2.9-.6V21c.74.3 1.8.57 2.82.57 2.25 0 4.4-.67 4.4-3.08 0-3.35-4.78-2.48-4.78-4.1z" clip-rule="evenodd"/></svg>